# xmcd
#
# Track frame offsets: 
#        150
#        18662
#        39157
#        50305
#        63559
#        76065
#        92095
#        109757
#        128567
#        144668
#        159365
#        173849
#
# Disc length: 2515 seconds
#
# Revision: 1
# Processed by: cddbd v1.5.2PL0 Copyright (c) Steve Scherf et al.
# Submitted via: ExactAudioCopy v0.95a5
#
DISCID=9009d10c
DTITLE=遇見你 - 黃紅英
DYEAR=1900
DGENRE=New Age
TTITLE0=遇見你
TTITLE1=雨中追憶
TTITLE2=一水隔天涯
TTITLE3=相思淚\
TTITLE4=忘記他
TTITLE5=漫步人生路
TTITLE6=從今日起
TTITLE7=遇見舊情人
TTITLE8=可否多見一眼
TTITLE9=風霜伴我行
TTITLE10=檳城豔
TTITLE11=東山飄雨西山晴
EXTD=
EXTT0=
EXTT1=
EXTT2=
EXTT3=
EXTT4=
EXTT5=
EXTT6=
EXTT7=
EXTT8=
EXTT9=
EXTT10=
EXTT11=
PLAYORDER=
